<mxfile host="65bd71144e">
    <diagram id="p6GXvKkhWLMYi2rqfo8v" name="Page-1">
        <mxGraphModel dx="627" dy="279" grid="1" gridSize="10" guides="1" tooltips="1" connect="1" arrows="1" fold="1" page="1" pageScale="1" pageWidth="850" pageHeight="1100" math="1" shadow="0">
            <root>
                <mxCell id="0"/>
                <mxCell id="1" parent="0"/>
                <mxCell id="8" style="edgeStyle=orthogonalEdgeStyle;rounded=0;html=1;exitX=1;exitY=0.5;exitDx=0;exitDy=0;exitPerimeter=0;entryX=0.5;entryY=1;entryDx=0;entryDy=0;entryPerimeter=0;endArrow=none;endFill=0;" parent="1" source="11" target="4" edge="1">
                    <mxGeometry relative="1" as="geometry">
                        <Array as="points">
                            <mxPoint x="680" y="320"/>
                            <mxPoint x="200" y="320"/>
                        </Array>
                        <mxPoint x="320" y="320" as="sourcePoint"/>
                    </mxGeometry>
                </mxCell>
                <mxCell id="14" style="edgeStyle=orthogonalEdgeStyle;rounded=0;html=1;exitX=1;exitY=1;exitDx=0;exitDy=0;exitPerimeter=0;entryX=0;entryY=0.5;entryDx=0;entryDy=0;entryPerimeter=0;endArrow=none;endFill=0;" parent="1" source="28" target="9" edge="1">
                    <mxGeometry relative="1" as="geometry">
                        <Array as="points">
                            <mxPoint x="560" y="200"/>
                            <mxPoint x="560" y="200"/>
                        </Array>
                        <mxPoint x="560" y="200" as="sourcePoint"/>
                    </mxGeometry>
                </mxCell>
                <mxCell id="6" style="edgeStyle=orthogonalEdgeStyle;html=1;exitX=0;exitY=0.5;exitDx=0;exitDy=0;exitPerimeter=0;entryX=0.5;entryY=0;entryDx=0;entryDy=0;entryPerimeter=0;rounded=0;endArrow=none;endFill=0;" parent="1" source="3" target="4" edge="1">
                    <mxGeometry relative="1" as="geometry"/>
                </mxCell>
                <mxCell id="7" style="edgeStyle=orthogonalEdgeStyle;rounded=0;html=1;exitX=1;exitY=0.5;exitDx=0;exitDy=0;exitPerimeter=0;entryX=0;entryY=1;entryDx=0;entryDy=0;entryPerimeter=0;endArrow=none;endFill=0;" parent="1" source="3" target="27" edge="1">
                    <mxGeometry relative="1" as="geometry">
                        <Array as="points">
                            <mxPoint x="320" y="200"/>
                            <mxPoint x="320" y="200"/>
                        </Array>
                        <mxPoint x="320" y="200" as="targetPoint"/>
                    </mxGeometry>
                </mxCell>
                <mxCell id="3" value="$$C_1$$" style="pointerEvents=1;verticalLabelPosition=top;shadow=0;dashed=0;align=center;html=1;verticalAlign=middle;shape=mxgraph.electrical.capacitors.capacitor_1;labelPosition=center;fontSize=16;" parent="1" vertex="1">
                    <mxGeometry x="210" y="180" width="100" height="40" as="geometry"/>
                </mxCell>
                <mxCell id="4" value="" style="pointerEvents=1;verticalLabelPosition=bottom;shadow=0;dashed=0;align=center;html=1;verticalAlign=top;shape=mxgraph.electrical.signal_sources.source;aspect=fixed;points=[[0.5,0,0],[1,0.5,0],[0.5,1,0],[0,0.5,0]];elSignalType=ac;" parent="1" vertex="1">
                    <mxGeometry x="180" y="240" width="40" height="40" as="geometry"/>
                </mxCell>
                <mxCell id="12" style="edgeStyle=orthogonalEdgeStyle;rounded=0;html=1;exitX=1;exitY=0.5;exitDx=0;exitDy=0;exitPerimeter=0;entryX=0;entryY=0.5;entryDx=0;entryDy=0;entryPerimeter=0;endArrow=none;endFill=0;" parent="1" source="9" target="11" edge="1">
                    <mxGeometry relative="1" as="geometry"/>
                </mxCell>
                <mxCell id="9" value="$$C_2$$" style="pointerEvents=1;verticalLabelPosition=top;shadow=0;dashed=0;align=center;html=1;verticalAlign=middle;shape=mxgraph.electrical.capacitors.capacitor_1;labelPosition=center;fontSize=16;" parent="1" vertex="1">
                    <mxGeometry x="570" y="180" width="100" height="40" as="geometry"/>
                </mxCell>
                <mxCell id="11" value="$$R$$" style="pointerEvents=1;verticalLabelPosition=middle;shadow=0;dashed=0;align=right;html=1;verticalAlign=middle;shape=mxgraph.electrical.resistors.resistor_2;direction=south;fontSize=16;labelPosition=left;" parent="1" vertex="1">
                    <mxGeometry x="670" y="210" width="20" height="100" as="geometry"/>
                </mxCell>
                <mxCell id="15" value="" style="endArrow=blockThin;html=1;curved=1;endFill=1;" parent="1" edge="1">
                    <mxGeometry width="50" height="50" relative="1" as="geometry">
                        <mxPoint x="190" y="300" as="sourcePoint"/>
                        <mxPoint x="190" y="220" as="targetPoint"/>
                        <Array as="points">
                            <mxPoint x="160" y="260"/>
                        </Array>
                    </mxGeometry>
                </mxCell>
                <mxCell id="16" value="$$v_1$$" style="edgeLabel;html=1;align=center;verticalAlign=middle;resizable=0;points=[];labelBackgroundColor=none;fontSize=16;" parent="15" vertex="1" connectable="0">
                    <mxGeometry x="0.1852" y="-9" relative="1" as="geometry">
                        <mxPoint x="-13" y="2" as="offset"/>
                    </mxGeometry>
                </mxCell>
                <mxCell id="22" value="" style="endArrow=classic;html=1;fontSize=16;curved=1;" parent="1" edge="1">
                    <mxGeometry width="50" height="50" relative="1" as="geometry">
                        <mxPoint x="200" y="191.43" as="sourcePoint"/>
                        <mxPoint x="240" y="191.43" as="targetPoint"/>
                    </mxGeometry>
                </mxCell>
                <mxCell id="23" value="$$i_1$$" style="edgeLabel;html=1;align=center;verticalAlign=middle;resizable=0;points=[];fontSize=16;labelPosition=center;verticalLabelPosition=top;labelBackgroundColor=none;" parent="22" vertex="1" connectable="0">
                    <mxGeometry x="-0.4707" y="-3" relative="1" as="geometry">
                        <mxPoint x="9" y="-13" as="offset"/>
                    </mxGeometry>
                </mxCell>
                <mxCell id="24" value="" style="endArrow=classic;html=1;fontSize=16;curved=1;" parent="1" edge="1">
                    <mxGeometry width="50" height="50" relative="1" as="geometry">
                        <mxPoint x="639.9999999999999" y="191.43" as="sourcePoint"/>
                        <mxPoint x="679.9999999999999" y="191.43" as="targetPoint"/>
                    </mxGeometry>
                </mxCell>
                <mxCell id="25" value="$$i_2$$" style="edgeLabel;html=1;align=center;verticalAlign=middle;resizable=0;points=[];fontSize=16;labelPosition=center;verticalLabelPosition=top;labelBackgroundColor=none;" parent="24" vertex="1" connectable="0">
                    <mxGeometry x="-0.4707" y="-3" relative="1" as="geometry">
                        <mxPoint x="10" y="-13" as="offset"/>
                    </mxGeometry>
                </mxCell>
                <mxCell id="30" style="edgeStyle=none;html=1;exitX=0;exitY=1;exitDx=0;exitDy=0;exitPerimeter=0;endArrow=oval;endFill=1;" edge="1" parent="1" source="26">
                    <mxGeometry relative="1" as="geometry">
                        <mxPoint x="439.8571428571429" y="200" as="targetPoint"/>
                    </mxGeometry>
                </mxCell>
                <mxCell id="31" style="edgeStyle=none;html=1;exitX=1;exitY=1;exitDx=0;exitDy=0;exitPerimeter=0;endArrow=oval;endFill=1;" edge="1" parent="1" source="26">
                    <mxGeometry relative="1" as="geometry">
                        <mxPoint x="439.8571428571429" y="320" as="targetPoint"/>
                    </mxGeometry>
                </mxCell>
                <mxCell id="26" value="$$M$$" style="pointerEvents=1;verticalLabelPosition=middle;shadow=0;dashed=0;align=left;html=1;verticalAlign=middle;shape=mxgraph.electrical.inductors.inductor_3;direction=south;fontSize=16;labelPosition=right;" vertex="1" parent="1">
                    <mxGeometry x="440" y="210" width="8" height="100" as="geometry"/>
                </mxCell>
                <mxCell id="29" style="edgeStyle=none;html=1;exitX=1;exitY=1;exitDx=0;exitDy=0;exitPerimeter=0;entryX=0;entryY=1;entryDx=0;entryDy=0;entryPerimeter=0;endArrow=none;endFill=0;" edge="1" parent="1" source="27" target="28">
                    <mxGeometry relative="1" as="geometry"/>
                </mxCell>
                <mxCell id="27" value="$$L_1-M$$" style="pointerEvents=1;verticalLabelPosition=top;shadow=0;dashed=0;align=center;html=1;verticalAlign=middle;shape=mxgraph.electrical.inductors.inductor_3;direction=east;labelPosition=center;spacingBottom=12;fontSize=16;" vertex="1" parent="1">
                    <mxGeometry x="330" y="192" width="100" height="8" as="geometry"/>
                </mxCell>
                <mxCell id="28" value="$$L_2-M$$" style="pointerEvents=1;verticalLabelPosition=top;shadow=0;dashed=0;align=center;html=1;verticalAlign=middle;shape=mxgraph.electrical.inductors.inductor_3;direction=east;fontSize=16;labelPosition=center;spacingBottom=12;" vertex="1" parent="1">
                    <mxGeometry x="448" y="192" width="100" height="8" as="geometry"/>
                </mxCell>
            </root>
        </mxGraphModel>
    </diagram>
</mxfile>